<?xml version="1.0" encoding="UTF-8" standalone="no"?>
<!-- Created with Inkscape (http://www.inkscape.org/) -->

<svg
  version="1.1"
  id="svg2"
  xml:space="preserve"
  width="164.56606"
  height="64"
  viewBox="0 0 164.56606 63.999999"
  xmlns="http://www.w3.org/2000/svg"
  xmlns:svg="http://www.w3.org/2000/svg"
>
  <defs id="defs6" />
  <g id="g8" transform="matrix(0.12206263,0,0,-0.12206263,0,64)">
    <g id="g10" transform="scale(0.1)">
      <path
        d="m 4290.27,1303.88 c 0,48.06 0,104.13 0,168.22 0,66.78 0,144.18 0,232.31 0,109.45 0,240.31 0,392.5 0,149.52 0,325.74 0,528.7 0,178.86 -64.09,331.06 -192.25,456.6 -125.54,128.16 -277.74,192.26 -456.6,192.26 -181.61,0 -335.13,-64.1 -460.61,-192.26 -128.16,-125.54 -192.25,-277.74 -192.25,-456.6 0,-178.92 68.09,-331.12 204.28,-456.6 133.49,-125.53 282.99,-189.62 448.58,-192.24 v -84.12 -252.33 c -176.23,0 -337.82,44.06 -484.63,132.17 -146.88,85.42 -263.03,197.57 -348.46,336.45 -48.06,74.71 -84.11,156.2 -108.14,244.32 -26.73,88.11 -40.05,178.85 -40.05,272.35 0,93.44 13.32,184.24 40.05,272.37 24.03,88.09 60.08,168.21 108.14,240.31 85.43,138.8 201.58,250.94 348.46,336.43 146.81,85.43 308.4,128.17 484.63,128.17 93.43,0 184.24,-13.38 272.37,-40.05 85.4,-24.02 166.82,-60.09 244.31,-108.13 138.81,-85.5 249.64,-201.65 332.43,-348.46 85.43,-144.2 128.17,-304.41 128.17,-480.64 0,-280.72 0,-1028.74 0,-1702.169 389.39,457.489 624.5,1050.329 624.5,1698.169 0,1447.87 -1173.73,2621.6 -2621.6,2621.6 -12.88,0 -25.7,-0.3 -38.54,-0.49 0,-567.5 0,-1959.06 0,-2625.11 0,-96.14 -13.38,-186.94 -40.05,-272.36 -24.02,-88.13 -60.07,-169.6 -108.13,-244.32 -85.49,-138.87 -201.65,-249.71 -348.46,-332.44 -146.89,-85.49 -308.41,-128.17 -484.63,-128.17 -176.25,0 -337.82,42.68 -484.64,128.17 -144.189,82.73 -260.349,193.57 -348.459,332.44 -45.433,74.72 -81.484,156.19 -108.148,244.32 -24.027,85.42 -36.039,176.22 -36.039,272.36 0,93.43 12.012,184.23 36.039,272.34 26.664,85.43 62.715,166.85 108.148,244.34 85.418,138.8 201.579,250.94 348.459,336.43 146.82,88.11 308.39,132.17 484.64,132.17 v -252.33 -84.11 c -168.22,-5.39 -317.81,-69.46 -448.59,-192.25 -133.56,-125.53 -200.274,-277.74 -200.274,-456.59 0,-178.93 62.714,-332.45 188.254,-460.61 125.47,-125.54 278.99,-188.25 460.61,-188.25 178.85,0 332.43,62.71 460.59,188.25 128.18,128.16 192.26,281.68 192.26,460.61 0,200.26 0,376.49 0,528.69 0,149.5 0,280.37 0,392.52 0,88.09 0,165.51 0,232.29 0,64.08 0,120.15 0,168.23 0,127.35 0,964.29 0,1278.18 C 980.527,5039.02 0,3944.92 0,2621.61 0,1173.74 1173.73,0 2621.6,0 c 633.96,0 1215.34,225.039 1668.67,599.559 0,244.589 0,602.671 0,704.321"
        style="fill: #6bb7e7; fill-opacity: 1; fill-rule: nonzero; stroke: none"
        id="path12"
      />
      <path
        d="m 6152.9,2050.99 h 427.97 c 472.56,0 659.8,344.75 650.89,683.56 -8.92,323.95 -199.13,647.92 -650.89,647.92 H 6152.9 Z m 1468.19,680.59 c 8.92,-526.05 -312.06,-1058.05 -1040.22,-1058.05 -255.59,0 -561.71,0 -817.31,0 v 2080.44 c 255.6,0 561.72,0 817.31,0 713.3,0 1031.31,-508.22 1040.22,-1022.39"
        style="fill: #6bb7e7; fill-opacity: 1; fill-rule: nonzero; stroke: none"
        id="path14"
      />
      <path
        d="m 8295.78,2404.65 c 0,-222.9 133.74,-430.95 398.26,-430.95 264.51,0 398.25,208.05 398.25,430.95 0,219.94 -154.55,433.93 -398.25,433.93 -261.54,0 -398.26,-213.99 -398.26,-433.93 z m 1162.07,0 c 0,-422.02 -288.29,-763.81 -763.81,-763.81 -475.53,0 -760.85,341.79 -760.85,763.81 0,419.06 291.26,763.83 757.87,763.83 466.61,0 766.79,-344.77 766.79,-763.83"
        style="fill: #6bb7e7; fill-opacity: 1; fill-rule: nonzero; stroke: none"
        id="path16"
      />
      <path
        d="m 11083.6,1860.78 c -169.4,-166.45 -347.7,-231.83 -564.7,-231.83 -425,0 -778.67,255.59 -778.67,775.7 0,520.11 353.67,775.72 778.67,775.72 208.1,0 368.5,-59.45 529,-216.98 l -228.8,-240.73 c -86.2,77.28 -193.2,115.92 -294.2,115.92 -243.8,0 -422.1,-178.32 -422.1,-433.93 0,-279.37 190.2,-427.97 416.1,-427.97 115.9,0 231.8,32.69 321,121.85 l 243.7,-237.75"
        style="fill: #6bb7e7; fill-opacity: 1; fill-rule: nonzero; stroke: none"
        id="path18"
      />
      <path
        d="m 11678,2707.8 c 6,-341.79 231.9,-707.34 683.6,-707.34 469.6,0 695.5,395.28 680.6,751.92 -14.9,335.85 -190.2,698.43 -680.6,698.43 -490.4,0 -689.5,-392.31 -683.6,-743.01 z m 1750.6,32.69 c 2.9,-237.75 -59.5,-484.44 -193.2,-677.63 l 246.7,-243.7 -276.4,-276.41 -252.7,249.67 c -157.5,-101.06 -356.6,-154.56 -591.4,-154.56 -740,0 -1067,537.94 -1069.9,1078.87 -3,543.87 338.8,1087.76 1069.9,1087.76 731.1,0 1058.1,-529.02 1067,-1064"
        style="fill: #6bb7e7; fill-opacity: 1; fill-rule: nonzero; stroke: none"
        id="path20"
      />
    </g>
  </g>
</svg>
