<?xml version="1.0" encoding="UTF-8" standalone="no"?>
<!-- Created with Inkscape (http://www.inkscape.org/) -->

<svg
  width="64"
  height="64.000122"
  viewBox="0 0 16.933332 16.933365"
  version="1.1"
  id="svg49"
  xmlns="http://www.w3.org/2000/svg"
  xmlns:svg="http://www.w3.org/2000/svg"
>
  <defs id="defs46" />
  <g id="layer1" transform="matrix(0.09154714,0,0,0.09154714,5.3867346,-2.8263996)">
    <path
      d="m 92.510086,169.84451 c 0,-1.69545 0,-3.67347 0,-5.93443 0,-2.35585 0,-5.08635 0,-8.19538 0,-3.86115 0,-8.4776 0,-13.84652 0,-5.27474 0,-11.49139 0,-18.65136 0,-6.30979 -2.260952,-11.67906 -6.782152,-16.10784 -4.428772,-4.5212 -9.79805,-6.7825 -16.107833,-6.7825 -6.406797,0 -11.822642,2.2613 -16.249297,6.7825 -4.5212,4.42878 -6.782153,9.79805 -6.782153,16.10784 0,6.3119 2.402064,11.68117 7.206545,16.10783 4.70923,4.42842 9.983258,6.68937 15.824905,6.7818 v 2.96757 8.90164 c -6.217003,0 -11.917539,-1.55434 -17.096669,-4.66267 -5.1816,-3.01342 -9.279114,-6.96983 -12.292895,-11.86921 -1.695449,-2.6356 -2.967213,-5.51038 -3.814938,-8.61906 -0.942975,-3.10833 -1.412875,-6.30943 -1.412875,-9.6079 0,-3.29636 0.4699,-6.49958 1.412875,-9.60861 0.847725,-3.10762 2.119489,-5.93408 3.814938,-8.4776 3.013781,-4.89656 7.111295,-8.85261 12.292895,-11.868507 5.17913,-3.013781 10.879666,-4.521553 17.096669,-4.521553 3.296002,0 6.499577,0.472017 9.608608,1.412875 3.012722,0.847372 5.885039,2.119842 8.618714,3.814586 4.896908,3.01625 8.806744,7.113759 11.727391,12.292899 3.013776,5.08705 4.521556,10.7389 4.521556,16.95591 0,9.90317 0,36.29166 0,60.04873 13.73681,-16.13919 22.03097,-37.05327 22.03097,-59.90762 0,-51.077638 -41.406587,-92.484223 -92.484222,-92.484223 -0.454378,0 -0.906639,0.01058 -1.359605,0.01729 0,20.020138 0,69.111273 0,92.608043 0,3.3916 -0.472017,6.59483 -1.412875,9.60825 -0.847373,3.10903 -2.119136,5.98311 -3.814586,8.61907 -3.015897,4.89902 -7.113764,8.80921 -12.292895,11.72774 -5.1819522,3.0159 -10.8800187,4.52156 -17.0966686,4.52156 -6.2177082,0 -11.9175384,-1.50566 -17.0970214,-4.52156 -5.086668,-2.91853 -9.184534,-6.82872 -12.292859,-11.72774 -1.602776,-2.63596 -2.874575,-5.51004 -3.815221,-8.61907 -0.847619,-3.01342 -1.271376,-6.21665 -1.271376,-9.60825 0,-3.296 0.423757,-6.49923 1.271376,-9.60755 0.940646,-3.01378 2.212445,-5.8861 3.815221,-8.61977 3.013357,-4.89656 7.111259,-8.852605 12.292859,-11.868502 5.179483,-3.108325 10.8793132,-4.662664 17.0970214,-4.662664 v 8.901641 2.967215 c -5.9344276,0.19014 -11.2116304,2.45039 -15.8252584,6.78215 -4.711699,4.42842 -7.065221,9.79805 -7.065221,16.10748 0,6.31225 2.21241,11.7281 6.641183,16.2493 4.426302,4.42877 9.8421466,6.64104 16.2492964,6.64104 6.3094304,0 11.7273914,-2.21227 16.2485916,-6.64104 4.521905,-4.5212 6.782505,-9.93705 6.782505,-16.2493 0,-7.06473 0,-13.28173 0,-18.65101 0,-5.274023 0,-9.890826 0,-13.847229 0,-3.107619 0,-5.838825 0,-8.194675 0,-2.2606 0,-4.238625 0,-5.93478 0,-4.492625 0,-34.018008 0,-45.091349 -44.947874,6.297083 -79.538687,44.894499 -79.538687,91.577933 0,51.07763 41.406585,92.48457 92.48422,92.48457 22.3647,0 42.874494,-7.93888 58.866968,-21.15111 0,-8.62855 0,-21.26089 0,-24.84688"
      style="fill: #6bb7e7; fill-opacity: 1; fill-rule: nonzero; stroke: none; stroke-width: 0.0352778"
      id="path12"
    />
  </g>
</svg>
